<svg width="32" height="32" viewBox="0 0 32 32" fill="none" xmlns="http://www.w3.org/2000/svg">
<path d="M16.0003 2.6665C14.2494 2.6665 12.5156 3.01138 10.8979 3.68144C9.28021 4.35151 7.81035 5.33363 6.57224 6.57175C4.07175 9.07223 2.66699 12.4636 2.66699 15.9998C2.66699 21.8932 6.49366 26.8932 11.787 28.6665C12.4537 28.7732 12.667 28.3598 12.667 27.9998V25.7465C8.97366 26.5465 8.18699 23.9598 8.18699 23.9598C7.57366 22.4132 6.70699 21.9998 6.70699 21.9998C5.49366 21.1732 6.80033 21.1998 6.80033 21.1998C8.13366 21.2932 8.84033 22.5732 8.84033 22.5732C10.0003 24.5998 11.9603 23.9998 12.7203 23.6798C12.8403 22.8132 13.187 22.2265 13.5603 21.8932C10.6003 21.5598 7.49366 20.4132 7.49366 15.3332C7.49366 13.8532 8.00033 12.6665 8.86699 11.7198C8.73366 11.3865 8.26699 9.99984 9.00033 8.19984C9.00033 8.19984 10.1203 7.83984 12.667 9.55984C13.7203 9.2665 14.867 9.11984 16.0003 9.11984C17.1337 9.11984 18.2803 9.2665 19.3337 9.55984C21.8803 7.83984 23.0003 8.19984 23.0003 8.19984C23.7337 9.99984 23.267 11.3865 23.1337 11.7198C24.0003 12.6665 24.507 13.8532 24.507 15.3332C24.507 20.4265 21.387 21.5465 18.4137 21.8798C18.8937 22.2932 19.3337 23.1065 19.3337 24.3465V27.9998C19.3337 28.3598 19.547 28.7865 20.227 28.6665C25.5203 26.8798 29.3337 21.8932 29.3337 15.9998C29.3337 14.2489 28.9888 12.5151 28.3187 10.8974C27.6487 9.27972 26.6665 7.80986 25.4284 6.57175C24.1903 5.33363 22.7205 4.35151 21.1028 3.68144C19.4851 3.01138 17.7513 2.6665 16.0003 2.6665Z" fill="#B292FF"/>
</svg>
