<svg width="32" height="32" viewBox="0 0 32 32" fill="none" xmlns="http://www.w3.org/2000/svg">
<path d="M5.33366 26.6668C4.60033 26.6668 3.97277 26.4059 3.45099 25.8842C2.92833 25.3615 2.66699 24.7335 2.66699 24.0002V8.00016C2.66699 7.26683 2.92833 6.63927 3.45099 6.1175C3.97277 5.59483 4.60033 5.3335 5.33366 5.3335H26.667C27.4003 5.3335 28.0283 5.59483 28.551 6.1175C29.0728 6.63927 29.3337 7.26683 29.3337 8.00016V24.0002C29.3337 24.7335 29.0728 25.3615 28.551 25.8842C28.0283 26.4059 27.4003 26.6668 26.667 26.6668H5.33366ZM16.0003 17.1002C16.1114 17.1002 16.2279 17.0833 16.3497 17.0495C16.4723 17.0166 16.5892 16.9668 16.7003 16.9002L26.1337 11.0002C26.3114 10.8891 26.4448 10.7504 26.5337 10.5842C26.6226 10.4171 26.667 10.2335 26.667 10.0335C26.667 9.58905 26.4781 9.25572 26.1003 9.0335C25.7226 8.81127 25.3337 8.82238 24.9337 9.06683L16.0003 14.6668L7.06699 9.06683C6.66699 8.82238 6.2781 8.81661 5.90033 9.0495C5.52255 9.28327 5.33366 9.61127 5.33366 10.0335C5.33366 10.2557 5.3781 10.4499 5.46699 10.6162C5.55588 10.7833 5.68922 10.9113 5.86699 11.0002L15.3003 16.9002C15.4114 16.9668 15.5283 17.0166 15.651 17.0495C15.7728 17.0833 15.8892 17.1002 16.0003 17.1002Z" fill="#B292FF"/>
</svg>
