<svg width="20" height="20" viewBox="0 0 20 20" fill="none" xmlns="http://www.w3.org/2000/svg">
<path d="M9.7141 8.42503C10.5479 8.42503 11.2279 9.12503 11.2279 10C11.2279 10.8334 10.5479 11.5417 9.7141 11.5417C8.88029 11.5417 8.20029 10.8334 8.20029 10C8.20029 9.12503 8.88029 8.42503 9.7141 8.42503ZM5.966 16.6667C6.476 16.9834 7.59315 16.5 8.88029 15.25C8.45934 14.7584 8.04648 14.225 7.65791 13.6667C7.00556 13.6024 6.35701 13.5023 5.71505 13.3667C5.3022 15.15 5.456 16.375 5.966 16.6667ZM6.54077 11.8834L6.306 11.4584C6.21696 11.7 6.12791 11.9417 6.07124 12.175C6.28981 12.225 6.53267 12.2667 6.78362 12.3084L6.54077 11.8834ZM11.8351 11.25L12.4908 10L11.8351 8.75003C11.5922 8.30837 11.3331 7.9167 11.0984 7.52503C10.6612 7.50003 10.1998 7.50003 9.7141 7.50003C9.22839 7.50003 8.76696 7.50003 8.32981 7.52503C8.09505 7.9167 7.836 8.30837 7.59315 8.75003L6.93743 10L7.59315 11.25C7.836 11.6917 8.09505 12.0834 8.32981 12.475C8.76696 12.5 9.22839 12.5 9.7141 12.5C10.1998 12.5 10.6612 12.5 11.0984 12.475C11.3331 12.0834 11.5922 11.6917 11.8351 11.25ZM9.7141 5.65003C9.56029 5.83337 9.39839 6.02503 9.23648 6.25003H10.1917C10.0298 6.02503 9.86791 5.83337 9.7141 5.65003ZM9.7141 14.35C9.86791 14.1667 10.0298 13.975 10.1917 13.75H9.23648C9.39839 13.975 9.56029 14.1667 9.7141 14.35ZM13.4541 3.33337C12.9522 3.0167 11.8351 3.50003 10.5479 4.75003C10.9689 5.2417 11.3817 5.77503 11.7703 6.33337C12.4341 6.40003 13.0898 6.50003 13.7131 6.63337C14.126 4.85003 13.9722 3.62503 13.4541 3.33337ZM12.8874 8.1167L13.1222 8.5417C13.2112 8.30003 13.3003 8.05837 13.357 7.82503C13.1384 7.77503 12.8955 7.73337 12.6446 7.6917L12.8874 8.1167ZM14.0612 2.2417C15.2512 2.9417 15.3808 4.78337 14.8789 6.93337C16.9351 7.55837 18.4165 8.5917 18.4165 10C18.4165 11.4084 16.9351 12.4417 14.8789 13.0667C15.3808 15.2167 15.2512 17.0584 14.0612 17.7584C12.8793 18.4584 11.2684 17.6584 9.7141 16.1334C8.15981 17.6584 6.54886 18.4584 5.35886 17.7584C4.17696 17.0584 4.04743 15.2167 4.54934 13.0667C2.49315 12.4417 1.01172 11.4084 1.01172 10C1.01172 8.5917 2.49315 7.55837 4.54934 6.93337C4.04743 4.78337 4.17696 2.9417 5.35886 2.2417C6.54886 1.5417 8.15981 2.3417 9.7141 3.8667C11.2684 2.3417 12.8793 1.5417 14.0612 2.2417ZM13.8265 10C14.1017 10.625 14.3446 11.25 14.547 11.8834C16.247 11.3584 17.2022 10.6084 17.2022 10C17.2022 9.3917 16.247 8.6417 14.547 8.1167C14.3446 8.75003 14.1017 9.37503 13.8265 10ZM5.60172 10C5.32648 9.37503 5.08362 8.75003 4.88124 8.1167C3.18124 8.6417 2.226 9.3917 2.226 10C2.226 10.6084 3.18124 11.3584 4.88124 11.8834C5.08362 11.25 5.32648 10.625 5.60172 10ZM12.8874 11.8834L12.6446 12.3084C12.8955 12.2667 13.1384 12.225 13.357 12.175C13.3003 11.9417 13.2112 11.7 13.1222 11.4584L12.8874 11.8834ZM10.5479 15.25C11.8351 16.5 12.9522 16.9834 13.4541 16.6667C13.9722 16.375 14.126 15.15 13.7131 13.3667C13.0898 13.5 12.4341 13.6 11.7703 13.6667C11.3817 14.225 10.9689 14.7584 10.5479 15.25ZM6.54077 8.1167L6.78362 7.6917C6.53267 7.73337 6.28981 7.77503 6.07124 7.82503C6.12791 8.05837 6.21696 8.30003 6.306 8.5417L6.54077 8.1167ZM8.88029 4.75003C7.59315 3.50003 6.476 3.0167 5.966 3.33337C5.456 3.62503 5.3022 4.85003 5.71505 6.63337C6.35701 6.49778 7.00556 6.39763 7.65791 6.33337C8.04648 5.77503 8.45934 5.2417 8.88029 4.75003Z" fill="#61DBFB"/>
</svg>
